<svg xmlns="http://www.w3.org/2000/svg" viewBox="0 0 106.2 106.2"><defs><style>.cls-1{fill:#009a33;}.cls-2{fill:#ffe100;}.cls-2,.cls-3,.cls-4{fill-rule:evenodd;}.cls-3{fill:#002675;}.cls-4{fill:#fff;}</style></defs><g id="Camada_2" data-name="Camada 2"><g id="_Layer_1" data-name="#Layer 1"><rect class="cls-1" width="106.2" height="106.22"/><polygon class="cls-2" points="2.7 53.1 53.4 85.5 104.1 53.1 53.4 20.7 2.7 53.1"/><path class="cls-3" d="M53.4,31.7A21.4,21.4,0,1,1,32.1,53.1,21.4,21.4,0,0,1,53.4,31.7Z"/><path class="cls-4" d="M33.9,44.5a44,44,0,0,1,7.3-.5A51.6,51.6,0,0,1,74.6,56.1a18.7,18.7,0,0,1-.8,3.4c-8.6-7.8-20.1-8.8-32.6-8.8a53.9,53.9,0,0,0-9.1,1A18.2,18.2,0,0,1,33.9,44.5Z"/></g></g></svg>