<svg xmlns="http://www.w3.org/2000/svg" viewBox="0 0 15 16.152">
  <defs>
    <style>
      .cls-1 {
        fill: #0b1323;
      }
    </style>
  </defs>
  <g id="calculadora-cotacao" transform="translate(0.001 -0.003)">
    <g id="Camada_1" data-name="Camada 1" transform="translate(-0.001 -0.001)">
      <path id="Subtraction_12" data-name="Subtraction 12" class="cls-1" d="M1140.154-2895.847a1.14,1.14,0,0,1-.795-.319A1.165,1.165,0,0,1,1139-2897v-13.787a1.138,1.138,0,0,1,.337-.876,1.147,1.147,0,0,1,.815-.336h12.693a1.14,1.14,0,0,1,.837.359,1.134,1.134,0,0,1,.317.852V-2897a1.154,1.154,0,0,1-1.154,1.151h-12.632A.453.453,0,0,1,1140.154-2895.847Zm11.383-6.923a1,1,0,0,0-1,1V-2898a1,1,0,0,0,1,1h.308a1,1,0,0,0,1-1v-3.768a1,1,0,0,0-1-1Zm-3.307,3.459a1.155,1.155,0,0,0-1.154,1.154,1.155,1.155,0,0,0,1.154,1.154,1.155,1.155,0,0,0,1.154-1.154A1.155,1.155,0,0,0,1148.231-2899.311Zm-6.922,0a1.155,1.155,0,0,0-1.154,1.153,1.155,1.155,0,0,0,1.154,1.154,1.155,1.155,0,0,0,1.154-1.154A1.155,1.155,0,0,0,1141.309-2899.312Zm3.46,0a1.155,1.155,0,0,0-1.153,1.154,1.153,1.153,0,0,0,1.153,1.151,1.154,1.154,0,0,0,1.154-1.151A1.155,1.155,0,0,0,1144.769-2899.311Zm3.461-3.461a1.155,1.155,0,0,0-1.154,1.154,1.155,1.155,0,0,0,1.154,1.154,1.155,1.155,0,0,0,1.154-1.154A1.155,1.155,0,0,0,1148.231-2902.773Zm-3.461,0a1.155,1.155,0,0,0-1.153,1.154,1.155,1.155,0,0,0,1.153,1.154,1.155,1.155,0,0,0,1.154-1.154A1.155,1.155,0,0,0,1144.769-2902.773Zm-3.46,0a1.155,1.155,0,0,0-1.154,1.154,1.154,1.154,0,0,0,1.154,1.152,1.154,1.154,0,0,0,1.154-1.152A1.155,1.155,0,0,0,1141.309-2902.773Zm6.922-3.458a1.155,1.155,0,0,0-1.154,1.154,1.155,1.155,0,0,0,1.154,1.154,1.155,1.155,0,0,0,1.154-1.154A1.155,1.155,0,0,0,1148.231-2906.23Zm-3.461,0a1.155,1.155,0,0,0-1.153,1.154,1.155,1.155,0,0,0,1.153,1.154,1.155,1.155,0,0,0,1.154-1.154A1.155,1.155,0,0,0,1144.769-2906.23Zm-3.46,0a1.155,1.155,0,0,0-1.154,1.154,1.155,1.155,0,0,0,1.154,1.154,1.155,1.155,0,0,0,1.154-1.154A1.155,1.155,0,0,0,1141.309-2906.23Zm10.382,0a1.153,1.153,0,0,0-1.154,1.15,1.156,1.156,0,0,0,1.154,1.156,1.156,1.156,0,0,0,1.154-1.156A1.153,1.153,0,0,0,1151.691-2906.23Zm-10.906-4.615a.63.63,0,0,0-.63.629v2.2a.632.632,0,0,0,.63.632h11.43a.632.632,0,0,0,.63-.632v-2.2a.63.63,0,0,0-.63-.629Z" transform="translate(-1139 2912.004)"/>
    </g>
  </g>
</svg>
