<svg xmlns="http://www.w3.org/2000/svg" viewBox="0 0 20 19.911">
  <defs>
    <style>
      .cls-1 {
        fill: #a1a1a1;
      }
    </style>
  </defs>
  <g id="facebook" transform="translate(186.024 185.974)">
    <g id="Group_217" data-name="Group 217" transform="translate(-186.024 -185.974)">
      <g id="Group_216" data-name="Group 216" transform="translate(0 0)">
        <path id="Path_239" data-name="Path 239" class="cls-1" d="M-166.529-177.672a3.458,3.458,0,0,0-2.65-1.073,19.846,19.846,0,0,0-2.944.063,2.7,2.7,0,0,1-.042-.967c.147-1.682.336-2.923.484-3.912l.021-.084a1.932,1.932,0,0,0-1.43-2.25,2.221,2.221,0,0,0-2.65,1.2c-.063.147-.126.336-.21.568-.589,1.556-1.914,5.11-4.059,6.393v-.189a.476.476,0,0,0-.484-.484h-5.047a.476.476,0,0,0-.484.484v10.515a.476.476,0,0,0,.484.484h5.047a.476.476,0,0,0,.484-.484v-.105a38.461,38.461,0,0,0,8.6,1.451c1.514,0,3.407,0,3.933-2.376.421-1.872.967-4.648,1.325-6.562A3.065,3.065,0,0,0-166.529-177.672Zm-.841,2.461c-.358,1.914-.9,4.648-1.325,6.519-.273,1.22-.82,1.388-2.713,1.388a38.511,38.511,0,0,1-8.349-1.43.336.336,0,0,1-.252-.294v-7.087a.313.313,0,0,1,.168-.294c2.818-1.3,4.332-5.342,5.047-7.277.084-.21.147-.4.21-.526a.913.913,0,0,1,.862-.5,1.242,1.242,0,0,1,.294.042.689.689,0,0,1,.526.862l-.021.084c-.147,1.009-.358,2.25-.5,4a2.547,2.547,0,0,0,.421,2.019,1.047,1.047,0,0,0,.82.294,16.849,16.849,0,0,1,2.881-.084,2.443,2.443,0,0,1,1.746.589A1.957,1.957,0,0,1-167.37-175.211Z" transform="translate(186.024 185.974)"/>
      </g>
    </g>
  </g>
</svg>
