<svg xmlns="http://www.w3.org/2000/svg" viewBox="0 0 36.639 45.54">
  <defs>
    <style>
      .cls-1 {
        fill: #e02c33;
      }
    </style>
  </defs>
  <g id="info" transform="translate(-190 -184)">
    <g id="Group_322" data-name="Group 322" transform="translate(190 184)">
      <g id="Group_321" data-name="Group 321">
        <g id="Group_320" data-name="Group 320">
          <g id="Group_308" data-name="Group 308">
            <path id="Path_340" data-name="Path 340" class="cls-1" d="M35.949,7.245h-9.66a6.863,6.863,0,0,0-3.174-2.9A4.71,4.71,0,0,0,18.285,0a4.761,4.761,0,0,0-4.83,4.347,6.657,6.657,0,0,0-3.174,2.9H.69a.652.652,0,0,0-.69.69V44.85a.652.652,0,0,0,.69.69H35.949a.652.652,0,0,0,.69-.69V7.935A.691.691,0,0,0,35.949,7.245ZM14.49,5.451a.656.656,0,0,0,.414-.69,3.334,3.334,0,0,1,3.45-3.45,3.335,3.335,0,0,1,3.45,3.45.759.759,0,0,0,.414.69,5.4,5.4,0,0,1,3.588,5.106H10.833A5.632,5.632,0,0,1,14.49,5.451ZM35.259,44.16H1.38V8.625H9.8a9.662,9.662,0,0,0-.345,2.622.652.652,0,0,0,.69.69H26.565a.652.652,0,0,0,.69-.69,10.475,10.475,0,0,0-.345-2.622h8.418V44.16Z"/>
          </g>
          <g id="Group_309" data-name="Group 309">
            <path id="Path_341" data-name="Path 341" class="cls-1" d="M18.354,8.073a2.691,2.691,0,1,0-2.691-2.691A2.694,2.694,0,0,0,18.354,8.073Zm0-4a1.31,1.31,0,0,1,1.311,1.311,1.269,1.269,0,0,1-1.311,1.311,1.31,1.31,0,0,1-1.311-1.311A1.269,1.269,0,0,1,18.354,4.071Z"/>
          </g>
          <g id="Group_310" data-name="Group 310">
            <path id="Path_342" data-name="Path 342" class="cls-1" d="M10.557,14.49H4.623a.652.652,0,0,0-.69.69v6.348a.652.652,0,0,0,.69.69h5.934a.652.652,0,0,0,.69-.69V15.18A.691.691,0,0,0,10.557,14.49Zm-.69,6.348H5.313V15.87H9.867Z"/>
          </g>
          <g id="Group_311" data-name="Group 311">
            <path id="Path_343" data-name="Path 343" class="cls-1" d="M10.557,24.081H4.623a.652.652,0,0,0-.69.69v6.348a.652.652,0,0,0,.69.69h5.934a.652.652,0,0,0,.69-.69V24.771A.691.691,0,0,0,10.557,24.081Zm-.69,6.348H5.313V25.461H9.867Z"/>
          </g>
          <g id="Group_312" data-name="Group 312">
            <path id="Path_344" data-name="Path 344" class="cls-1" d="M10.557,33.672H4.623a.652.652,0,0,0-.69.69V40.71a.652.652,0,0,0,.69.69h5.934a.652.652,0,0,0,.69-.69V34.362A.691.691,0,0,0,10.557,33.672Zm-.69,6.348H5.313V35.052H9.867Z"/>
          </g>
          <g id="Group_313" data-name="Group 313">
            <path id="Path_345" data-name="Path 345" class="cls-1" d="M16.974,21.252a.7.7,0,0,0,.483.276h.069a.626.626,0,0,0,.483-.207L22.7,16.56a.683.683,0,0,0-.966-.966l-4.071,4.14L15.939,17.25a.7.7,0,0,0-1.173.759Z"/>
          </g>
          <g id="Group_314" data-name="Group 314">
            <path id="Path_346" data-name="Path 346" class="cls-1" d="M25.047,17.112a.679.679,0,0,0-.207.966l2.208,3.174a.7.7,0,0,0,.483.276H27.6a.626.626,0,0,0,.483-.207l4.692-4.761a.683.683,0,1,0-.966-.966l-4.071,4.14L26.013,17.25A.752.752,0,0,0,25.047,17.112Z"/>
          </g>
          <g id="Group_316" data-name="Group 316">
            <path id="Path_348" data-name="Path 348" class="cls-1" d="M14.49,26.5h17.8a.69.69,0,0,0,0-1.38H14.49a.652.652,0,0,0-.69.69A.691.691,0,0,0,14.49,26.5Z"/>
          </g>
          <g id="Group_317" data-name="Group 317">
            <path id="Path_349" data-name="Path 349" class="cls-1" d="M32.292,30.843a.69.69,0,0,0,0-1.38H14.49a.69.69,0,1,0,0,1.38Z"/>
          </g>
          <g id="Group_318" data-name="Group 318">
            <path id="Path_350" data-name="Path 350" class="cls-1" d="M14.766,34.707a.69.69,0,1,0,0,1.38h17.8a.69.69,0,1,0,0-1.38Z"/>
          </g>
          <g id="Group_319" data-name="Group 319">
            <path id="Path_351" data-name="Path 351" class="cls-1" d="M32.568,39.054h-17.8a.69.69,0,1,0,0,1.38h17.8a.652.652,0,0,0,.69-.69A.691.691,0,0,0,32.568,39.054Z"/>
          </g>
        </g>
      </g>
    </g>
  </g>
</svg>
