<svg xmlns="http://www.w3.org/2000/svg" viewBox="0 0 45.526 45.491">
  <defs>
    <style>
      .cls-1 {
        fill: #e02c33;
      }
    </style>
  </defs>
  <g id="time2" transform="translate(-186.031 -185.962)">
    <g id="Group_307" data-name="Group 307" transform="translate(186 186)">
      <g id="Group_306" data-name="Group 306">
        <g id="Group_305" data-name="Group 305">
          <g id="Group_287" data-name="Group 287">
            <path id="Path_322" data-name="Path 322" class="cls-1" d="M22.77,6.762A16.008,16.008,0,1,0,38.778,22.77,16.02,16.02,0,0,0,22.77,6.762Zm0,30.636A14.628,14.628,0,1,1,37.4,22.77,14.635,14.635,0,0,1,22.77,37.4Z"/>
          </g>
          <g id="Group_288" data-name="Group 288">
            <path id="Path_323" data-name="Path 323" class="cls-1" d="M23.46,20.148v-5.8a.69.69,0,1,0-1.38,0v5.8a2.817,2.817,0,0,0-2,2.622,2.854,2.854,0,0,0,.345,1.311l-3.864,3.8a.683.683,0,0,0,.966.966l3.864-3.726a2.488,2.488,0,0,0,1.38.414,2.74,2.74,0,0,0,2.691-2.691A2.836,2.836,0,0,0,23.46,20.148Zm-.69,3.933a1.357,1.357,0,0,1-1.311-1.311,1.269,1.269,0,0,1,1.311-1.311,1.357,1.357,0,0,1,1.311,1.311A1.31,1.31,0,0,1,22.77,24.081Z"/>
          </g>
          <g id="Group_289" data-name="Group 289">
            <path id="Path_324" data-name="Path 324" class="cls-1" d="M22.77,12.489a.652.652,0,0,0,.69-.69V10.005a.69.69,0,1,0-1.38,0V11.8A.691.691,0,0,0,22.77,12.489Z"/>
          </g>
          <g id="Group_290" data-name="Group 290">
            <path id="Path_325" data-name="Path 325" class="cls-1" d="M22.77,33.051a.652.652,0,0,0-.69.69v1.794a.69.69,0,0,0,1.38,0V33.741A.691.691,0,0,0,22.77,33.051Z"/>
          </g>
          <g id="Group_291" data-name="Group 291">
            <path id="Path_326" data-name="Path 326" class="cls-1" d="M33.051,22.77a.652.652,0,0,0,.69.69h1.794a.69.69,0,0,0,0-1.38H33.741A.691.691,0,0,0,33.051,22.77Z"/>
          </g>
          <g id="Group_292" data-name="Group 292">
            <path id="Path_327" data-name="Path 327" class="cls-1" d="M12.489,22.77a.652.652,0,0,0-.69-.69H10.005a.69.69,0,1,0,0,1.38H11.8A.691.691,0,0,0,12.489,22.77Z"/>
          </g>
          <g id="Group_293" data-name="Group 293">
            <path id="Path_328" data-name="Path 328" class="cls-1" d="M28.014,13.938a.7.7,0,0,0,.966-.276l.9-1.518a.71.71,0,0,0-1.242-.69l-.9,1.518A.7.7,0,0,0,28.014,13.938Z"/>
          </g>
          <g id="Group_294" data-name="Group 294">
            <path id="Path_329" data-name="Path 329" class="cls-1" d="M17.526,31.6a.7.7,0,0,0-.966.276l-.9,1.518a.71.71,0,1,0,1.242.69l.9-1.518A.7.7,0,0,0,17.526,31.6Z"/>
          </g>
          <g id="Group_295" data-name="Group 295">
            <path id="Path_330" data-name="Path 330" class="cls-1" d="M34.086,28.635l-1.518-.9a.71.71,0,1,0-.69,1.242l1.518.9a.71.71,0,1,0,.69-1.242Z"/>
          </g>
          <g id="Group_296" data-name="Group 296">
            <path id="Path_331" data-name="Path 331" class="cls-1" d="M11.454,16.905l1.518.9a.71.71,0,0,0,.69-1.242l-1.518-.9a.71.71,0,0,0-.69,1.242Z"/>
          </g>
          <g id="Group_297" data-name="Group 297">
            <path id="Path_332" data-name="Path 332" class="cls-1" d="M31.533,17.388a.679.679,0,0,0,.966.207l1.518-.9a.7.7,0,1,0-.759-1.173l-1.518.9A.774.774,0,0,0,31.533,17.388Z"/>
          </g>
          <g id="Group_298" data-name="Group 298">
            <path id="Path_333" data-name="Path 333" class="cls-1" d="M13.041,27.876l-1.518.9a.7.7,0,0,0,.759,1.173l1.518-.9a.679.679,0,0,0,.207-.966A.743.743,0,0,0,13.041,27.876Z"/>
          </g>
          <g id="Group_299" data-name="Group 299">
            <path id="Path_334" data-name="Path 334" class="cls-1" d="M29.049,31.809a.7.7,0,0,0-1.173.759l.9,1.518a.7.7,0,0,0,1.173-.759Z"/>
          </g>
          <g id="Group_300" data-name="Group 300">
            <path id="Path_335" data-name="Path 335" class="cls-1" d="M17.388,14.007a.679.679,0,0,0,.207-.966l-.9-1.518a.7.7,0,0,0-1.173.759l.9,1.518A.774.774,0,0,0,17.388,14.007Z"/>
          </g>
          <g id="Group_301" data-name="Group 301">
            <path id="Path_336" data-name="Path 336" class="cls-1" d="M3.519,23.322,6,20.838a.683.683,0,1,0-.966-.966L3.8,21.114A18.988,18.988,0,0,1,19.6,3.933a.7.7,0,0,0-.276-1.38,20.447,20.447,0,0,0-16.9,18.492l-1.173-1.38A.671.671,0,0,0,.276,19.6a.671.671,0,0,0-.069.966l2.346,2.691A.667.667,0,0,0,3.519,23.322Z"/>
          </g>
          <g id="Group_302" data-name="Group 302">
            <path id="Path_337" data-name="Path 337" class="cls-1" d="M23.253,42.159l-2.484-2.484a.683.683,0,0,0-.966.966l1.242,1.242A19.261,19.261,0,0,1,3.933,25.668a.7.7,0,0,0-1.38.207A20.506,20.506,0,0,0,20.769,43.194L19.32,44.229a.69.69,0,1,0,.828,1.1l2.967-2.208a.852.852,0,0,0,.276-.552C23.46,42.5,23.391,42.3,23.253,42.159Z"/>
          </g>
          <g id="Group_303" data-name="Group 303">
            <path id="Path_338" data-name="Path 338" class="cls-1" d="M45.4,25.047l-2.346-2.691a.667.667,0,0,0-.966,0L39.606,24.84a.683.683,0,0,0,.966.966l1.242-1.242a19.142,19.142,0,0,1-16.353,17.25.808.808,0,0,0-.621.759.74.74,0,0,0,.759.621,20.61,20.61,0,0,0,17.6-18.63l1.242,1.38a.671.671,0,0,0,.966.069A.829.829,0,0,0,45.4,25.047Z"/>
          </g>
          <g id="Group_304" data-name="Group 304">
            <path id="Path_339" data-name="Path 339" class="cls-1" d="M22.287,3.45l2.484,2.484a.683.683,0,1,0,.966-.966L24.5,3.726A19.2,19.2,0,0,1,41.607,20.079a.664.664,0,0,0,1.311-.207A20.388,20.388,0,0,0,24.564,2.346l1.38-1.173a.671.671,0,0,0,.069-.966.671.671,0,0,0-.966-.069L22.356,2.415A.65.65,0,0,0,22.287,3.45Z"/>
          </g>
        </g>
      </g>
    </g>
  </g>
</svg>
