<svg xmlns="http://www.w3.org/2000/svg" viewBox="0 0 45.5 45.54">
  <defs>
    <style>
      .cls-1 {
        fill: #e02c33;
      }
    </style>
  </defs>
  <g id="segur" transform="translate(-186 -186)">
    <g id="Group_286" data-name="Group 286" transform="translate(186 186)">
      <g id="Group_285" data-name="Group 285">
        <g id="Group_284" data-name="Group 284">
          <g id="Group_278" data-name="Group 278">
            <path id="Path_316" data-name="Path 316" class="cls-1" d="M45.4,10.488,39.537,1.242A2.786,2.786,0,0,0,37.191,0H8.418A2.786,2.786,0,0,0,6.072,1.242L.138,10.488A.729.729,0,0,0,0,10.833V35.4a2.915,2.915,0,0,0,2.9,2.9H7.59A24.2,24.2,0,0,0,14.421,45.4a1.166,1.166,0,0,0,.345.138.527.527,0,0,0,.345-.138A24.2,24.2,0,0,0,21.942,38.3H42.573a2.915,2.915,0,0,0,2.9-2.9V10.833A.3.3,0,0,0,45.4,10.488ZM15.939,11.523H29.6v6.348H15.939ZM38.364,2l5.244,8.142H30.843L28.014,1.38h9.108A1.319,1.319,0,0,1,38.364,2Zm-11.8-.621,2.76,8.763H16.146l2.76-8.763ZM7.176,2A1.432,1.432,0,0,1,8.349,1.38h9.108L14.7,10.143H1.932Zm7.59,42.021C13.11,42.78,6.21,37.329,6.21,29.256V27.117c2.967-.759,5.934-1.656,8.556-4.071a17.716,17.716,0,0,0,8.556,4.14v2.07C23.322,37.329,16.491,42.78,14.766,44.022ZM44.16,35.466a1.531,1.531,0,0,1-1.518,1.518H22.77A17.056,17.056,0,0,0,24.7,29.256V26.634a.743.743,0,0,0-.552-.69,16.345,16.345,0,0,1-8.832-4.278.745.745,0,0,0-.483-.207.783.783,0,0,0-.552.207c-2.622,2.622-5.658,3.45-8.9,4.278a.685.685,0,0,0-.483.69v2.622a17.056,17.056,0,0,0,1.932,7.728H2.9A1.531,1.531,0,0,1,1.38,35.466V11.523H14.559v7.038a.652.652,0,0,0,.69.69H30.291a.652.652,0,0,0,.69-.69V11.523H44.16Z"/>
          </g>
          <g id="Group_279" data-name="Group 279">
            <path id="Path_317" data-name="Path 317" class="cls-1" d="M21.459,28.014c-2-.69-4.071-1.173-6.141-2.829a.724.724,0,0,0-.9,0c-1.794,1.38-3.864,1.863-6.279,2.76a.663.663,0,0,0-.483.621,17.5,17.5,0,0,0,6.762,13.662.981.981,0,0,0,.414.138.981.981,0,0,0,.414-.138c3.381-2.277,6.762-7.659,6.762-13.524A1.1,1.1,0,0,0,21.459,28.014ZM14.766,40.779a15.847,15.847,0,0,1-5.727-11.73,21.629,21.629,0,0,0,5.8-2.484,19.089,19.089,0,0,0,5.727,2.622A16.349,16.349,0,0,1,14.766,40.779Z"/>
          </g>
          <g id="Group_280" data-name="Group 280">
            <path id="Path_318" data-name="Path 318" class="cls-1" d="M17.595,30.912l-3.726,3.381-1.1-1.863a.71.71,0,1,0-1.242.69l1.518,2.622a.8.8,0,0,0,.483.345.743.743,0,0,0,.552-.138l4.347-3.933a.739.739,0,0,0,.069-.966A.522.522,0,0,0,17.595,30.912Z"/>
          </g>
          <g id="Group_281" data-name="Group 281">
            <path id="Path_319" data-name="Path 319" class="cls-1" d="M30.981,23.046a.626.626,0,0,0-.483.207h0l-2.553,2.553a.683.683,0,1,0,.966.966l1.38-1.38v5.451a.69.69,0,0,0,1.38,0V25.392l1.38,1.38a.683.683,0,0,0,.966-.966l-2.553-2.553h0A.626.626,0,0,0,30.981,23.046Z"/>
          </g>
          <g id="Group_282" data-name="Group 282">
            <path id="Path_320" data-name="Path 320" class="cls-1" d="M36.708,26.772l1.38-1.38v5.451a.69.69,0,1,0,1.38,0V25.392l1.38,1.38a.683.683,0,1,0,.966-.966l-2.553-2.553h0a.667.667,0,0,0-.966,0h0l-2.553,2.553a.683.683,0,0,0,.966.966Z"/>
          </g>
          <g id="Group_283" data-name="Group 283">
            <path id="Path_321" data-name="Path 321" class="cls-1" d="M41.331,33.258h-12.9a.69.69,0,0,0,0,1.38h12.9a.69.69,0,0,0,0-1.38Z"/>
          </g>
        </g>
      </g>
    </g>
  </g>
</svg>
