<svg xmlns="http://www.w3.org/2000/svg" viewBox="0 0 21.531 20.098">
  <defs>
    <style>
      .cls-1 {
        fill: none;
        stroke: #a2a2a2;
        stroke-width: 1.5px;
        fill-rule: evenodd;
      }
    </style>
  </defs>
  <path id="phone-ico-f" class="cls-1" d="M69.428,67.078c-.12-.2-.459-.32-.939-.579-.5-.24-2.915-1.438-3.375-1.6s-.779-.24-1.118.24c-.319.5-1.278,1.6-1.558,1.937-.28.319-.579.379-1.058.12a13.067,13.067,0,0,1-3.954-2.436,14.454,14.454,0,0,1-2.736-3.415.7.7,0,0,1,.22-1c.22-.22.5-.579.739-.859a4.274,4.274,0,0,0,.5-.819.921.921,0,0,0-.04-.859c-.12-.24-1.118-2.676-1.518-3.654-.4-.958-.8-.839-1.118-.839-.28-.02-.619-.02-.939-.02a1.824,1.824,0,0,0-1.318.619A5.5,5.5,0,0,0,49.5,58.032a9.446,9.446,0,0,0,2.017,5.092c.24.319,3.474,5.312,8.427,7.448a28.552,28.552,0,0,0,2.816,1.038,6.768,6.768,0,0,0,3.1.2c.939-.14,2.915-1.2,3.335-2.336A4.669,4.669,0,0,0,69.428,67.078Z" transform="translate(-48.75 -52.55)"/>
</svg>
