<svg id="whatsapp-ico-f" xmlns="http://www.w3.org/2000/svg" viewBox="0 0 20 20.091">
  <defs>
    <style>
      .cls-1, .cls-2 {
        fill: #a2a2a2;
      }

      .cls-2 {
        fill-rule: evenodd;
      }
    </style>
  </defs>
  <path id="Path_36" data-name="Path 36" class="cls-1" d="M0,20.091l1.411-5.161A9.957,9.957,0,0,1,10.04,0a9.965,9.965,0,0,1,0,19.929h0a10.02,10.02,0,0,1-4.758-1.21Zm5.524-3.185.3.181a8.219,8.219,0,0,0,4.214,1.149h0a8.269,8.269,0,1,0-7.006-3.881l.2.313L2.4,17.722Z"/>
  <path id="Path_37" data-name="Path 37" class="cls-2" d="M59.56,60.256c-.06-.1-.232-.161-.474-.292s-1.472-.726-1.7-.806-.393-.121-.565.121-.645.806-.786.978-.292.192-.534.06a6.6,6.6,0,0,1-2-1.23,7.3,7.3,0,0,1-1.381-1.724.355.355,0,0,1,.111-.5c.111-.111.252-.292.373-.433a2.158,2.158,0,0,0,.252-.413.465.465,0,0,0-.02-.433c-.06-.121-.565-1.351-.766-1.845s-.4-.423-.565-.423c-.141-.01-.312-.01-.474-.01a.921.921,0,0,0-.665.312,2.775,2.775,0,0,0-.867,2.077,4.768,4.768,0,0,0,1.018,2.571,11.094,11.094,0,0,0,4.254,3.76,14.415,14.415,0,0,0,1.421.524,3.417,3.417,0,0,0,1.562.1,2.6,2.6,0,0,0,1.683-1.179A2.357,2.357,0,0,0,59.56,60.256Z" transform="translate(-44.51 -47.927)"/>
</svg>
